<svg width="65" height="43" viewBox="0 0 65 43" fill="none" xmlns="http://www.w3.org/2000/svg">
<g clip-path="url(#clip0_490_678)">
<path d="M21.822 7.87133C22.4523 7.08436 23.7131 5.51042 25.4219 4.25577C27.1308 3.00112 29.2878 2.06579 31.3394 1.48368C33.391 0.901571 35.3372 0.67271 37.3937 0.716298C39.4502 0.759881 41.617 1.07591 43.7137 1.54827C45.8103 2.02063 47.8368 2.64929 49.9925 3.03666C52.1481 3.42403 57.0985 3.74051 57.0985 3.74051C57.0985 3.74051 57.8712 1.21574 59.0081 0.707601C60.1449 0.199462 61.8994 0.456069 62.8819 1.76698C63.8236 3.02354 62.8143 10.2639 62.411 15.1181C62.0971 16.0606 61.8914 16.8754 60.8072 17.2272C59.723 17.579 57.9638 17.4721 57.0916 16.6247C56.2194 15.7774 56.2322 14.4222 56.246 12.9507L54.1824 13.7819C52.0138 14.6593 49.8453 15.5367 47.2405 15.8747C44.6358 16.2126 41.595 16.0112 39.446 15.4519C37.2971 14.8925 36.04 13.9753 35.2898 13.0878C34.5395 12.2003 34.2961 11.3426 34.3263 10.6184C34.3565 9.8943 34.6603 9.30384 35.1212 8.89898C35.582 8.49412 36.1999 8.27489 37.0623 8.16029C37.9248 8.04569 41.2459 8.15468 40.9081 8.0499C40.5704 7.94511 36.5737 7.62658 34.9187 7.91962C33.2637 8.21265 31.7361 8.99828 30.4357 9.8422C29.1353 10.6861 28.062 11.5883 27.1756 12.1258C26.2893 12.6632 25.5899 12.836 24.9606 12.8756C24.3314 12.9153 23.7722 12.8217 23.2541 12.595C22.7359 12.3683 22.2587 12.0084 21.9389 11.5503C21.6192 11.0921 21.4569 10.5357 21.3586 10.0374C21.2603 9.53899 21.2714 9.14939 21.3586 8.83525C21.4457 8.5211 21.5142 8.25554 21.822 7.87133Z" fill="#108184"/>
<path d="M59.11 0.936099C60.1497 0.471383 61.7755 0.707549 62.6818 1.91695C62.7644 2.02709 62.8428 2.23125 62.9026 2.54814C62.9611 2.85847 62.9967 3.25027 63.0122 3.70943C63.0432 4.62726 62.9941 5.79115 62.9018 7.07548C62.7171 9.64482 62.3671 12.6271 62.1634 15.0685C62.0063 15.5418 61.8876 15.935 61.6851 16.2622C61.4888 16.5795 61.2134 16.8324 60.7299 16.9893C60.2273 17.1524 59.5539 17.2117 58.9016 17.1272C58.2465 17.0423 57.6486 16.8169 57.2659 16.4451C56.8817 16.0718 56.6825 15.5791 56.5835 14.9812C56.4836 14.3782 56.4887 13.6941 56.4956 12.9528L56.4991 12.5787L56.1522 12.7189L54.0885 13.5498C51.9174 14.4282 49.777 15.2933 47.2085 15.6266C44.6338 15.9607 41.6251 15.7608 39.5089 15.21C37.4043 14.6622 36.1943 13.7703 35.481 12.9267C34.767 12.082 34.5489 11.2837 34.5762 10.6285C34.6037 9.97207 34.8775 9.44581 35.2865 9.08654C35.6943 8.7284 36.2558 8.52009 37.0951 8.40854C37.5052 8.35405 38.5281 8.35162 39.435 8.35144C39.8814 8.35136 40.2957 8.3517 40.5766 8.34531C40.7138 8.34219 40.8307 8.33713 40.9048 8.32822C40.9238 8.32592 40.9465 8.32264 40.9683 8.31757C40.9791 8.31504 40.9945 8.31125 41.0113 8.30494C41.0246 8.2999 41.0575 8.28663 41.0904 8.25916C41.1238 8.23124 41.1918 8.15669 41.1806 8.03956C41.1708 7.93693 41.1055 7.8799 41.0852 7.86364C41.0412 7.8286 40.9927 7.81415 40.9817 7.81075C40.9142 7.78991 40.7914 7.772 40.6527 7.7546C40.5039 7.73595 40.3102 7.71534 40.0844 7.69517C39.6326 7.65482 39.0461 7.61447 38.4186 7.58627C37.1723 7.53026 35.7337 7.52192 34.8755 7.67382C33.1733 7.97519 31.6126 8.78066 30.2993 9.6329C29.6422 10.0593 29.0434 10.5002 28.5025 10.8978C27.9582 11.298 27.4777 11.6505 27.046 11.9123C26.1936 12.4291 25.5333 12.5889 24.9453 12.626C24.3519 12.6634 23.8322 12.5751 23.3539 12.3658C22.8707 12.1544 22.4335 11.8212 22.1444 11.407C21.8542 10.9912 21.6994 10.4754 21.6035 9.98922C21.5106 9.51815 21.5252 9.16933 21.5992 8.9023C21.6841 8.59624 21.7425 8.37126 22.0175 8.02792C22.6478 7.24105 23.89 5.69016 25.5697 4.45698C27.2483 3.22454 29.3762 2.30075 31.4077 1.72437C33.4341 1.14939 35.3554 0.923504 37.3883 0.966582C39.424 1.00972 41.5737 1.32254 43.6586 1.79223C45.7241 2.25757 47.7914 2.89534 49.9484 3.28295C51.0393 3.47897 52.8267 3.65515 54.3324 3.78258C55.0873 3.84646 55.7751 3.89908 56.2736 3.93485C56.5226 3.95272 56.7245 3.96633 56.8643 3.97576C56.9343 3.98048 56.9895 3.98432 57.0264 3.98674C57.0447 3.98794 57.059 3.98815 57.0684 3.98876C57.073 3.98905 57.0768 3.9896 57.0792 3.98975L57.0821 3.98975L57.2793 4.00274L57.3372 3.81337L57.3382 3.8124C57.3385 3.8114 57.3386 3.80954 57.3392 3.80752C57.3406 3.80319 57.3433 3.79668 57.3461 3.78799C57.3517 3.77036 57.3593 3.74374 57.3706 3.70991C57.3932 3.6421 57.4276 3.54431 57.4716 3.4249C57.5599 3.18537 57.6887 2.86123 57.8518 2.52311C58.0155 2.18405 58.2106 1.83673 58.4295 1.54642C58.651 1.25254 58.8819 1.03811 59.11 0.936099Z" stroke="#012021" stroke-opacity="0.7" stroke-width="0.5"/>
<path d="M41.8691 31.9978C41.2387 32.7848 39.978 34.3587 38.2691 35.6134C36.5602 36.868 34.4033 37.8034 32.3517 38.3855C30.3001 38.9676 28.3539 39.1964 26.2974 39.1528C24.2408 39.1093 22.0741 38.7932 19.9774 38.3209C17.8807 37.8485 15.8543 37.2198 13.6986 36.8325C11.5429 36.4451 9.00431 36.2828 6.59259 36.1286C6.20622 37.391 5.81983 38.6534 4.683 39.1615C3.54617 39.6697 1.79165 39.4131 0.809191 38.1022C-0.132531 36.8456 0.876777 29.6053 1.2801 24.751C1.59401 23.8086 1.7997 22.9938 2.88387 22.642C3.96804 22.2902 5.72727 22.3971 6.59945 23.2444C7.47163 24.0918 7.45889 25.4469 7.44507 26.9184L9.50869 26.0872C11.6772 25.2098 13.8458 24.3324 16.4505 23.9945C19.0553 23.6565 22.0961 23.8579 24.245 24.4173C26.394 24.9766 27.651 25.8938 28.4013 26.7813C29.1515 27.6688 29.395 28.5266 29.3648 29.2507C29.3346 29.9748 29.0307 30.5653 28.5699 30.9702C28.109 31.375 27.4912 31.5943 26.6287 31.7089C25.7663 31.8234 22.4452 31.7145 22.7829 31.8192C23.1207 31.924 27.1174 32.2426 28.7724 31.9495C30.4274 31.6565 31.9549 30.8709 33.2554 30.0269C34.5558 29.183 35.6291 28.2809 36.5154 27.7434C37.4018 27.2059 38.1012 27.0331 38.7304 26.9935C39.3597 26.9539 39.9188 27.0474 40.437 27.2741C40.9552 27.5008 41.4324 27.8607 41.7521 28.3188C42.0719 28.777 42.2342 29.3334 42.3325 29.8318C42.4308 30.3302 42.4197 30.7198 42.3325 31.0339C42.2454 31.348 42.1768 31.6136 41.8691 31.9978Z" fill="#108184"/>
<path d="M4.58103 38.933C3.54134 39.3978 1.91561 39.1616 1.00923 37.9522C0.926703 37.8421 0.848224 37.6379 0.78848 37.321C0.730015 37.0107 0.694397 36.6189 0.678864 36.1597C0.647841 35.2419 0.696971 34.078 0.789294 32.7937C0.973991 30.2243 1.32399 27.2421 1.52764 24.8006C1.68474 24.3274 1.8035 23.9342 2.00596 23.607C2.20232 23.2897 2.47768 23.0367 2.96114 22.8799C3.46375 22.7168 4.13719 22.6574 4.78947 22.7419C5.44457 22.8269 6.04249 23.0522 6.42518 23.424C6.80934 23.7973 7.00853 24.29 7.10759 24.8879C7.20746 25.491 7.20239 26.175 7.19543 26.9164L7.19194 27.2904L7.53883 27.1503L9.60256 26.3193C11.7736 25.4409 13.9141 24.5758 16.4826 24.2426C19.0573 23.9085 22.0659 24.1084 24.1822 24.6592C26.2868 25.207 27.4968 26.0989 28.2101 26.9425C28.9241 27.7871 29.1422 28.5854 29.1149 29.2407C29.0874 29.8971 28.8136 30.4233 28.4046 30.7826C27.9968 31.1407 27.4353 31.349 26.596 31.4606C26.1859 31.5151 25.163 31.5175 24.256 31.5177C23.8097 31.5178 23.3953 31.5174 23.1144 31.5238C22.9773 31.5269 22.8603 31.532 22.7863 31.5409C22.7673 31.5432 22.7446 31.5465 22.7228 31.5516C22.7119 31.5541 22.6966 31.5579 22.6798 31.5642C22.6664 31.5692 22.6336 31.5825 22.6006 31.61C22.5672 31.6379 22.4993 31.7124 22.5105 31.8296C22.5203 31.9322 22.5855 31.9892 22.6059 32.0055C22.6498 32.0405 22.6984 32.055 22.7093 32.0584C22.7769 32.0792 22.8996 32.0971 23.0384 32.1145C23.1871 32.1332 23.3809 32.1538 23.6066 32.174C24.0585 32.2143 24.645 32.2547 25.2725 32.2829C26.5188 32.3389 27.9573 32.3472 28.8156 32.1953C30.5177 31.8939 32.0785 31.0885 33.3917 30.2362C34.0488 29.8098 34.6476 29.369 35.1885 28.9713C35.7329 28.5711 36.2134 28.2186 36.6451 27.9569C37.4974 27.44 38.1578 27.2802 38.7458 27.2432C39.3392 27.2058 39.8589 27.294 40.3372 27.5033C40.8203 27.7148 41.2576 28.0479 41.5467 28.4621C41.8369 28.878 41.9917 29.3938 42.0876 29.8799C42.1805 30.351 42.1659 30.6998 42.0918 30.9668C42.0069 31.2729 41.9486 31.4979 41.6736 31.8412C41.0433 32.6281 39.801 34.179 38.1214 35.4122C36.4428 36.6446 34.3148 37.5684 32.2834 38.1448C30.2569 38.7197 28.3357 38.9456 26.3028 38.9026C24.2671 38.8594 22.1174 38.5466 20.0325 38.0769C17.967 37.6116 15.8997 36.9738 13.7427 36.5862C11.5704 36.1958 9.01673 36.0333 6.60897 35.8794L6.41172 35.8664L6.35383 36.0558C6.15907 36.6921 5.97217 37.2983 5.6989 37.8097C5.42854 38.3155 5.08294 38.7087 4.58103 38.933Z" stroke="#012021" stroke-opacity="0.7" stroke-width="0.5"/>
<path fill-rule="evenodd" clip-rule="evenodd" d="M35.6397 23.4849C36.3494 22.7899 36.8327 21.9043 37.0286 20.9402C37.2244 19.9761 37.1241 18.9767 36.7401 18.0684C36.3562 17.1602 35.706 16.3839 34.8717 15.8377C34.0374 15.2915 33.0565 15 32.053 15C31.0496 15 30.0687 15.2915 29.2344 15.8377C28.4001 16.3839 27.7498 17.1602 27.3659 18.0684C26.982 18.9767 26.8816 19.9761 27.0775 20.9402C27.2734 21.9043 27.7567 22.7899 28.4663 23.4849L32.053 27L35.6397 23.4849ZM34.9081 18.3787L31.5183 22.1018L29.2585 20.1244L30.1059 19.277L31.5183 20.4069L34.1171 17.5821L34.9081 18.3787Z" fill="url(#paint0_linear_490_678)"/>
<path fill-rule="evenodd" clip-rule="evenodd" d="M35.6397 23.4849C36.3494 22.7899 36.8327 21.9043 37.0286 20.9402C37.2244 19.9761 37.1241 18.9767 36.7401 18.0684C36.3562 17.1602 35.706 16.3839 34.8717 15.8377C34.0374 15.2915 33.0565 15 32.053 15C31.0496 15 30.0687 15.2915 29.2344 15.8377C28.4001 16.3839 27.7498 17.1602 27.3659 18.0684C26.982 18.9767 26.8816 19.9761 27.0775 20.9402C27.2734 21.9043 27.7567 22.7899 28.4663 23.4849L32.053 27L35.6397 23.4849ZM34.9081 18.3787L31.5183 22.1018L29.2585 20.1244L30.1059 19.277L31.5183 20.4069L34.1171 17.5821L34.9081 18.3787Z" fill="#B11647"/>
</g>
<defs>
<linearGradient id="paint0_linear_490_678" x1="32.053" y1="14.212" x2="32.053" y2="27" gradientUnits="userSpaceOnUse">
<stop stop-color="#F22DC8"/>
<stop offset="1" stop-color="#C3084D"/>
</linearGradient>
<clipPath id="clip0_490_678">
<rect width="64" height="42" fill="white" transform="translate(0.0618896) rotate(0.084452)"/>
</clipPath>
</defs>
</svg>
