<svg width="20" height="20" viewBox="0 0 20 20" fill="none" xmlns="http://www.w3.org/2000/svg">
<path d="M18.3333 14.1002V16.6002C18.3343 16.8322 18.2867 17.062 18.1938 17.2746C18.1008 17.4873 17.9644 17.6782 17.7934 17.8351C17.6224 17.9919 17.4205 18.1114 17.2006 18.1858C16.9808 18.2601 16.7478 18.2877 16.5167 18.2668C13.9524 17.9882 11.4892 17.112 9.325 15.7085C7.31152 14.4291 5.60445 12.722 4.325 10.7085C2.91665 8.5345 2.0402 6.05932 1.76667 3.4835C1.74584 3.25305 1.77323 3.0208 1.84708 2.80152C1.92094 2.58224 2.03964 2.38074 2.19564 2.20985C2.35163 2.03896 2.5415 1.90242 2.75316 1.80893C2.96481 1.71544 3.19362 1.66705 3.425 1.66683H5.925C6.32942 1.66285 6.72149 1.80606 7.02813 2.06977C7.33478 2.33348 7.53506 2.6997 7.59167 3.10016C7.69719 3.90022 7.89288 4.68577 8.175 5.44183C8.28712 5.7401 8.31139 6.06426 8.24492 6.3759C8.17846 6.68753 8.02405 6.97359 7.8 7.20016L6.74167 8.2585C7.92796 10.3448 9.65538 12.0722 11.7417 13.2585L12.8 12.2002C13.0266 11.9761 13.3126 11.8217 13.6243 11.7552C13.9359 11.6888 14.2601 11.713 14.5583 11.8252C15.3144 12.1073 16.0999 12.303 16.9 12.4085C17.3048 12.4656 17.6745 12.6695 17.9388 12.9814C18.2031 13.2933 18.3435 13.6915 18.3333 14.1002Z" stroke="white" stroke-linecap="round" stroke-linejoin="round"/>
</svg>
