<svg width="40" height="40" viewBox="0 0 40 40" fill="none" xmlns="http://www.w3.org/2000/svg">
<path d="M20 0.0126953C22.765 0.0126953 25.3632 0.537618 27.7949 1.58691C30.2268 2.63631 32.3428 4.05957 34.1416 5.8584C35.9404 7.65722 37.3637 9.77316 38.4131 12.2051C39.4624 14.6368 39.9873 17.235 39.9873 20C39.9873 22.765 39.4624 25.3632 38.4131 27.7949C37.3637 30.2268 35.9404 32.3428 34.1416 34.1416C32.3428 35.9404 30.2268 37.3637 27.7949 38.4131C25.3632 39.4624 22.765 39.9873 20 39.9873C17.235 39.9873 14.6368 39.4624 12.2051 38.4131C9.77316 37.3637 7.65722 35.9404 5.8584 34.1416C4.05957 32.3428 2.63631 30.2268 1.58691 27.7949C0.537618 25.3632 0.0126953 22.765 0.0126953 20C0.0126953 17.235 0.537618 14.6368 1.58691 12.2051C2.63631 9.77316 4.05957 7.65722 5.8584 5.8584C7.65722 4.05957 9.77316 2.63631 12.2051 1.58691C14.6368 0.537618 17.235 0.0126953 20 0.0126953ZM20 3.9873C15.5634 3.9873 11.785 5.54699 8.66602 8.66602C5.54699 11.785 3.9873 15.5634 3.9873 20C3.9873 21.9681 4.31233 23.8199 4.96289 25.5547C5.61337 27.2892 6.52286 28.8403 7.69043 30.208L7.69824 30.2168L7.70801 30.21C9.40688 28.9109 11.3056 27.8863 13.4043 27.1367C15.5029 26.3872 17.7014 26.0127 20 26.0127C22.2986 26.0127 24.4971 26.3872 26.5957 27.1367C28.6944 27.8863 30.5931 28.9109 32.292 30.21L32.3018 30.2168L32.3096 30.208C33.4771 28.8403 34.3866 27.2892 35.0371 25.5547C35.6877 23.8199 36.0127 21.9681 36.0127 20C36.0127 15.5634 34.453 11.785 31.334 8.66602C28.215 5.54699 24.4366 3.9873 20 3.9873ZM20 8.0127C21.9635 8.0127 23.6182 8.6866 24.9658 10.0342C26.3134 11.3818 26.9873 13.0365 26.9873 15C26.9873 16.9635 26.3134 18.6182 24.9658 19.9658C23.6182 21.3134 21.9635 21.9873 20 21.9873C18.0365 21.9873 16.3818 21.3134 15.0342 19.9658C13.6866 18.6182 13.0127 16.9635 13.0127 15C13.0127 13.0365 13.6866 11.3818 15.0342 10.0342C16.3818 8.6866 18.0365 8.0127 20 8.0127Z" fill="#012021" stroke="#E7F0F2" stroke-width="0.025"/>
</svg>
