<svg width="734" height="736" viewBox="0 0 734 736" fill="none" xmlns="http://www.w3.org/2000/svg">
<path fill-rule="evenodd" clip-rule="evenodd" d="M378.214 6.2023C375.093 9.61319 361.76 24.2454 348.585 38.7174C335.41 53.1894 323.228 66.5526 321.514 68.4133C303.419 88.0599 287.17 106.037 287.17 106.409C287.17 107.044 291.501 112.542 308.143 133.034C316.02 142.733 322.327 150.89 322.159 151.16C321.991 151.432 317.414 154.268 311.989 157.464C305.564 161.249 302.256 163.62 302.503 164.265C302.713 164.809 311.061 176.148 321.056 189.461C331.05 202.775 339.09 213.805 338.923 213.973C338.755 214.14 333.566 211.522 327.392 208.154C321.217 204.787 311.929 199.734 306.751 196.926C294.811 190.45 266.836 175.053 265.054 173.977C263.903 173.283 263.436 170.46 261.896 154.885C260.902 144.832 259.951 136.469 259.783 136.301C259.614 136.133 258.778 136.881 257.925 137.965C257.072 139.047 251.823 144.901 246.262 150.972C240.7 157.044 225.516 173.689 212.519 187.961C199.522 202.234 174.146 230.084 156.128 249.851C138.109 269.618 123.263 286.078 123.136 286.428C123.01 286.778 128.413 287.101 135.145 287.146C141.877 287.191 147.472 287.316 147.58 287.423C147.687 287.53 146.768 297.078 145.537 308.64C144.307 320.202 139.418 366.537 134.672 411.607C129.927 456.677 125.862 494.822 125.639 496.372L125.232 499.191H217.131H309.029L310.924 494.915C311.966 492.563 313.002 489.908 313.226 489.015C313.534 487.793 309.843 481.65 298.294 464.159C289.856 451.382 282.35 439.907 281.614 438.66L280.276 436.393L292.017 407.836C298.474 392.131 304.43 377.758 305.251 375.897C307.766 370.2 327.134 323.114 328.445 319.512L329.676 316.129L330.214 321.016C330.509 323.704 331.495 345.186 332.406 368.755C333.317 392.324 334.185 411.747 334.336 411.918C334.488 412.088 341.983 411.156 350.994 409.845C360.005 408.535 368.139 407.464 369.071 407.467L370.766 407.472V453.332V499.191H469.424C523.686 499.191 568.083 498.997 568.083 498.76C568.083 498.282 571.877 462.259 578.253 402.21C582.606 361.227 584.622 341.99 588.106 308.236C589.236 297.278 590.362 288.078 590.607 287.791C590.852 287.504 596.052 287.198 602.161 287.112C608.27 287.024 613.268 286.752 613.266 286.506C613.263 286.057 603.675 273.969 555.773 214.021C541.625 196.317 529.939 181.52 529.802 181.141C529.585 180.534 554.197 99.7375 555.039 98.2971C555.22 97.9866 539.313 97.7332 519.691 97.7332H484.013L481.204 106.807C479.66 111.797 478.101 115.772 477.74 115.64C477.379 115.509 469.515 105.917 460.263 94.3253C396.634 14.6059 384.89 0 384.418 0C384.127 0 381.335 2.79141 378.214 6.2023ZM0.464673 538.097C4.14741 614.056 48.442 681.388 116.589 714.616C134.394 723.297 148.702 728.189 167.048 731.868C188.238 736.118 182.849 736.007 367.156 735.998C550.868 735.99 546.189 736.085 566.727 731.93C610.386 723.097 651.358 699.885 680.026 667.742C712.764 631.036 731.049 586.831 733.496 538.472L734 528.511H671.399H608.797L606.278 532.458C604.893 534.629 602.815 538.097 601.661 540.164L599.563 543.923L607.942 562.307L616.321 580.69L602.629 603.279C595.099 615.704 585.178 632.105 580.583 639.728C575.986 647.351 572.121 653.04 571.991 652.369C571.777 651.257 577.393 597.785 578.228 592.978L578.589 590.91H566.602C560.009 590.91 554.476 590.657 554.305 590.346C554.051 589.885 556.261 575.121 563.139 531.33L563.582 528.511H281.791H0L0.464673 538.097Z" fill="#E7F0F2"/>
</svg>
