<svg width="25" height="24" viewBox="0 0 25 24" fill="none" xmlns="http://www.w3.org/2000/svg">
<g clip-path="url(#clip0_1559_604)">
<path d="M0.0192261 20V17.225C0.0192261 16.6583 0.160893 16.1333 0.444226 15.65C0.727559 15.1667 1.11923 14.8 1.61923 14.55C1.85256 14.4333 2.07756 14.325 2.29423 14.225C2.52756 14.125 2.76923 14.0333 3.01923 13.95V20H0.0192261ZM4.01923 13C3.18589 13 2.47756 12.7083 1.89423 12.125C1.31089 11.5417 1.01923 10.8333 1.01923 10C1.01923 9.16667 1.31089 8.45833 1.89423 7.875C2.47756 7.29167 3.18589 7 4.01923 7C4.85256 7 5.56089 7.29167 6.14423 7.875C6.72756 8.45833 7.01923 9.16667 7.01923 10C7.01923 10.8333 6.72756 11.5417 6.14423 12.125C5.56089 12.7083 4.85256 13 4.01923 13ZM4.01923 11C4.30256 11 4.53589 10.9083 4.71923 10.725C4.91923 10.525 5.01923 10.2833 5.01923 10C5.01923 9.71667 4.91923 9.48333 4.71923 9.3C4.53589 9.1 4.30256 9 4.01923 9C3.73589 9 3.49423 9.1 3.29423 9.3C3.11089 9.48333 3.01923 9.71667 3.01923 10C3.01923 10.2833 3.11089 10.525 3.29423 10.725C3.49423 10.9083 3.73589 11 4.01923 11ZM4.01923 20V17.2C4.01923 16.6333 4.16089 16.1167 4.44423 15.65C4.74423 15.1667 5.13589 14.8 5.61923 14.55C6.65256 14.0333 7.70256 13.65 8.76923 13.4C9.83589 13.1333 10.9192 13 12.0192 13C13.1192 13 14.2026 13.1333 15.2692 13.4C16.3359 13.65 17.3859 14.0333 18.4192 14.55C18.9026 14.8 19.2859 15.1667 19.5692 15.65C19.8692 16.1167 20.0192 16.6333 20.0192 17.2V20H4.01923ZM6.01923 18H18.0192V17.2C18.0192 17.0167 17.9692 16.85 17.8692 16.7C17.7859 16.55 17.6692 16.4333 17.5192 16.35C16.6192 15.9 15.7109 15.5667 14.7942 15.35C13.8776 15.1167 12.9526 15 12.0192 15C11.0859 15 10.1609 15.1167 9.24423 15.35C8.32756 15.5667 7.41923 15.9 6.51923 16.35C6.36923 16.4333 6.24423 16.55 6.14423 16.7C6.06089 16.85 6.01923 17.0167 6.01923 17.2V18ZM12.0192 12C10.9192 12 9.97756 11.6083 9.19423 10.825C8.41089 10.0417 8.01923 9.1 8.01923 8C8.01923 6.9 8.41089 5.95833 9.19423 5.175C9.97756 4.39167 10.9192 4 12.0192 4C13.1192 4 14.0609 4.39167 14.8442 5.175C15.6276 5.95833 16.0192 6.9 16.0192 8C16.0192 9.1 15.6276 10.0417 14.8442 10.825C14.0609 11.6083 13.1192 12 12.0192 12ZM12.0192 10C12.5692 10 13.0359 9.80833 13.4192 9.425C13.8192 9.025 14.0192 8.55 14.0192 8C14.0192 7.45 13.8192 6.98333 13.4192 6.6C13.0359 6.2 12.5692 6 12.0192 6C11.4692 6 10.9942 6.2 10.5942 6.6C10.2109 6.98333 10.0192 7.45 10.0192 8C10.0192 8.55 10.2109 9.025 10.5942 9.425C10.9942 9.80833 11.4692 10 12.0192 10ZM20.0192 13C19.1859 13 18.4776 12.7083 17.8942 12.125C17.3109 11.5417 17.0192 10.8333 17.0192 10C17.0192 9.16667 17.3109 8.45833 17.8942 7.875C18.4776 7.29167 19.1859 7 20.0192 7C20.8526 7 21.5609 7.29167 22.1442 7.875C22.7276 8.45833 23.0192 9.16667 23.0192 10C23.0192 10.8333 22.7276 11.5417 22.1442 12.125C21.5609 12.7083 20.8526 13 20.0192 13ZM20.0192 11C20.3026 11 20.5359 10.9083 20.7192 10.725C20.9192 10.525 21.0192 10.2833 21.0192 10C21.0192 9.71667 20.9192 9.48333 20.7192 9.3C20.5359 9.1 20.3026 9 20.0192 9C19.7359 9 19.4942 9.1 19.2942 9.3C19.1109 9.48333 19.0192 9.71667 19.0192 10C19.0192 10.2833 19.1109 10.525 19.2942 10.725C19.4942 10.9083 19.7359 11 20.0192 11ZM21.0192 20V13.95C21.2692 14.0333 21.5026 14.125 21.7192 14.225C21.9526 14.325 22.1859 14.4333 22.4192 14.55C22.9192 14.8 23.3109 15.1667 23.5942 15.65C23.8776 16.1333 24.0192 16.6583 24.0192 17.225V20H21.0192Z" fill="#1D1B20"/>
</g>
<defs>
<clipPath id="clip0_1559_604">
<rect width="24" height="24" fill="white" transform="translate(0.0192261)"/>
</clipPath>
</defs>
</svg>
