<svg width="25" height="24" viewBox="0 0 25 24" fill="none" xmlns="http://www.w3.org/2000/svg">
<path d="M12.0192 22C11.7859 22 11.5859 21.9333 11.4192 21.8C11.2526 21.6667 11.1276 21.4917 11.0442 21.275C10.7276 20.3417 10.3276 19.4667 9.84423 18.65C9.37756 17.8333 8.71923 16.875 7.86923 15.775C7.01923 14.675 6.32756 13.625 5.79423 12.625C5.27756 11.625 5.01923 10.4167 5.01923 9C5.01923 7.05 5.69423 5.4 7.04423 4.05C8.41089 2.68333 10.0692 2 12.0192 2C13.9692 2 15.6192 2.68333 16.9692 4.05C18.3359 5.4 19.0192 7.05 19.0192 9C19.0192 10.5167 18.7276 11.7833 18.1442 12.8C17.5776 13.8 16.9192 14.7917 16.1692 15.775C15.2692 16.975 14.5859 17.975 14.1192 18.775C13.6692 19.5583 13.2942 20.3917 12.9942 21.275C12.9109 21.5083 12.7776 21.6917 12.5942 21.825C12.4276 21.9417 12.2359 22 12.0192 22ZM12.0192 18.425C12.3026 17.8583 12.6192 17.3 12.9692 16.75C13.3359 16.2 13.8692 15.4667 14.5692 14.55C15.2859 13.6167 15.8692 12.7583 16.3192 11.975C16.7859 11.175 17.0192 10.1833 17.0192 9C17.0192 7.61667 16.5276 6.44167 15.5442 5.475C14.5776 4.49167 13.4026 4 12.0192 4C10.6359 4 9.45256 4.49167 8.46923 5.475C7.50256 6.44167 7.01923 7.61667 7.01923 9C7.01923 10.1833 7.24423 11.175 7.69423 11.975C8.16089 12.7583 8.75256 13.6167 9.46923 14.55C10.1692 15.4667 10.6942 16.2 11.0442 16.75C11.4109 17.3 11.7359 17.8583 12.0192 18.425ZM12.0192 11.5C12.7192 11.5 13.3109 11.2583 13.7942 10.775C14.2776 10.2917 14.5192 9.7 14.5192 9C14.5192 8.3 14.2776 7.70833 13.7942 7.225C13.3109 6.74167 12.7192 6.5 12.0192 6.5C11.3192 6.5 10.7276 6.74167 10.2442 7.225C9.76089 7.70833 9.51923 8.3 9.51923 9C9.51923 9.7 9.76089 10.2917 10.2442 10.775C10.7276 11.2583 11.3192 11.5 12.0192 11.5Z" fill="#1D1B20"/>
</svg>
