<svg width="92" height="93" viewBox="0 0 92 93" fill="none" xmlns="http://www.w3.org/2000/svg">
<path d="M12.8289 83.5234H79.1691C87.1781 83.5234 91.2606 79.5181 91.2606 71.5864V31.2723C91.2606 23.3406 87.1781 19.3747 79.1691 19.3747H70.1597C67.1566 19.3747 66.2333 18.7587 64.5001 16.8332L61.3803 13.3668C59.4943 11.2508 57.5311 10.0942 53.5258 10.0942H38.2012C34.2353 10.0942 32.2705 11.2508 30.3467 13.3668L27.2269 16.8332C25.5331 18.7192 24.5704 19.3747 21.5673 19.3747H12.8273C4.81834 19.3747 0.73584 23.3406 0.73584 31.2723V71.5864C0.73584 79.5181 4.81998 83.5234 12.8289 83.5234ZM12.9423 77.3232C9.13084 77.3232 6.93598 75.2828 6.93598 71.2775V31.6189C6.93598 27.6137 9.13084 25.5732 12.9423 25.5732H23.1066C26.5731 25.5732 28.4213 24.9194 30.3467 22.764L33.3876 19.3747C35.5825 16.9105 36.6996 16.2944 40.1266 16.2944H51.6003C55.0273 16.2944 56.1445 16.9105 58.3393 19.3747L61.3803 22.7623C63.3057 24.9194 65.1539 25.5732 68.6203 25.5732H79.0541C82.8656 25.5732 85.0621 27.6137 85.0621 31.6189V71.2775C85.0621 75.2828 82.8672 77.3232 79.0541 77.3232H12.9423ZM45.9801 71.202C48.7463 71.2098 51.4867 70.6701 54.0433 69.6139C56.5999 68.5578 58.9222 67.0061 60.8764 65.0483C62.8305 63.0904 64.3779 60.7652 65.4292 58.2066C66.4806 55.648 67.0151 52.9067 67.0021 50.1405C67.0021 38.4335 57.6838 29.0791 45.9785 29.0791C34.3503 29.0791 24.9943 38.4335 24.9943 50.1405C24.9943 61.8442 34.3503 71.202 45.9785 71.202M73.6623 40.7434C76.281 40.7434 78.4364 38.6274 78.4364 36.0087C78.4364 34.7425 77.9334 33.5282 77.0381 32.6328C76.1428 31.7375 74.9285 31.2345 73.6623 31.2345C72.3961 31.2345 71.1818 31.7375 70.2864 32.6328C69.3911 33.5282 68.8881 34.7425 68.8881 36.0087C68.8881 38.6274 71.0436 40.7434 73.6623 40.7434ZM45.9801 65.3501C37.6246 65.3501 30.81 58.5733 30.81 50.1405C30.81 41.7077 37.5868 34.9326 45.9801 34.9326C47.978 34.9302 49.9567 35.3219 51.803 36.0854C53.6493 36.8488 55.3268 37.9688 56.7396 39.3815C58.1524 40.7941 59.2727 42.4716 60.0363 44.3178C60.7999 46.164 61.1919 48.1426 61.1897 50.1405C61.1921 52.1385 60.8003 54.1174 60.0368 55.9638C59.2733 57.8102 58.153 59.4878 56.7402 60.9006C55.3274 62.3134 53.6498 63.4337 51.8034 64.1972C49.957 64.9607 47.9781 65.3525 45.9801 65.3501Z" fill="#D9D9D9" fill-opacity="0.8"/>
</svg>
